<svg width="107" height="125" viewBox="0 0 107 125" fill="none" xmlns="http://www.w3.org/2000/svg">
<path d="M79.6 90.6H26C25.0667 93.2667 24.0667 96.2 23 99.4C21.9333 102.467 20.8667 105.533 19.8 108.6C18.8667 111.533 17.9333 114.333 17 117C16.0667 119.533 15.3333 121.667 14.8 123.4C12.9333 124.2 10.7333 124.6 8.2 124.6C6.06667 124.6 4.13333 124.067 2.4 123C0.8 121.8 2.38419e-07 119.933 2.38419e-07 117.4C2.38419e-07 116.2 0.2 115 0.6 113.8C1 112.467 1.46667 111.067 2 109.6C4 104 6.53333 96.8 9.6 88C12.8 79.2 16.2 69.8667 19.8 60C23.5333 50 27.2667 40 31 30C34.8667 19.8667 38.4 10.8 41.6 2.8C42.6667 2.26666 44.2667 1.73333 46.4 1.19999C48.5333 0.66666 50.7333 0.399993 53 0.399993C55.6667 0.399993 58.2 0.799992 60.6 1.59999C63.1333 2.4 64.7333 3.73333 65.4 5.6C68.6 13.3333 72 22.2 75.6 32.2C79.3333 42.0667 83.0667 52.2 86.8 62.6C90.5333 73 94.0667 83.2667 97.4 93.4C100.867 103.4 103.933 112.467 106.6 120.6C105.533 121.8 104.267 122.733 102.8 123.4C101.333 124.2 99.6667 124.6 97.8 124.6C95.2667 124.6 93.3333 124.067 92 123C90.6667 121.8 89.5333 119.867 88.6 117.2L79.6 90.6ZM52.8 14C51.3333 18 49.6667 22.6 47.8 27.8C45.9333 32.8667 44 38.2 42 43.8C40 49.4 38 55.0667 36 60.8C34 66.5333 32.1333 72 30.4 77.2H75.4C73.4 71.2 71.3333 65.2 69.2 59.2C67.0667 53.0667 65 47.2 63 41.6C61.1333 36 59.3333 30.8667 57.6 26.2C56 21.4 54.6667 17.3333 53.6 14H52.8Z" fill="#FAFF01"/>
</svg>
