<svg width="91" height="127" viewBox="0 0 91 127" fill="none" xmlns="http://www.w3.org/2000/svg">
<path d="M86.2 33C86.2 38.7333 84.8 44.0667 82 49C79.3333 53.8 74.8 57.5333 68.4 60.2C76 62.7333 81.6667 66.7333 85.4 72.2C89.1333 77.5333 91 83.6 91 90.4C91 102.533 86.6 111.533 77.8 117.4C69.1333 123.267 56.7333 126.2 40.6 126.2C35 126.2 29.5333 125.933 24.2 125.4C19 125 14 124.133 9.2 122.8C3.6 121.2 0.8 118.133 0.8 113.6V11.2C0.8 7.33333 3 4.79999 7.4 3.59999C11.9333 2.26666 16.7333 1.39999 21.8 0.999998C26.8667 0.466664 32.4 0.199996 38.4 0.199996C53.4667 0.199996 65.2 2.86666 73.6 8.19999C82 13.5333 86.2 21.8 86.2 33ZM16.8 67.4V110.6C20 111.267 23.6667 111.8 27.8 112.2C32.0667 112.6 36.3333 112.8 40.6 112.8C51.6667 112.8 60.0667 111 65.8 107.4C71.5333 103.667 74.4 97.8667 74.4 90C74.4 83.0667 71.8 77.6 66.6 73.6C61.5333 69.4667 54 67.4 44 67.4H16.8ZM16.8 54.2H44C52.4 54.2 58.7333 52.3333 63 48.6C67.4 44.8667 69.6 39.8 69.6 33.4C69.6 20.2 59.2 13.6 38.4 13.6C33.7333 13.6 29.6667 13.8 26.2 14.2C22.8667 14.4667 19.7333 14.8667 16.8 15.4V54.2Z" fill="#FAFF01"/>
</svg>
