<svg width="123" height="142" viewBox="0 0 123 142" fill="none" xmlns="http://www.w3.org/2000/svg">
<path d="M59.1368 80.7621L13.0698 124.052C11.7101 124.055 10.3762 123.928 9.06818 123.669C6.45211 123.152 4.47558 122.15 3.13859 120.663C1.82744 119.044 1.3916 117.123 1.83105 114.9C2.1671 113.199 2.86971 111.707 3.93888 110.423C5.13885 109.166 6.57381 107.75 8.24374 106.177L51.6941 67.8746L23.7482 8.12291C24.8417 6.0285 26.25 4.40404 27.9732 3.24955C29.8531 1.99011 32.101 1.61889 34.7171 2.13589C36.8099 2.54949 38.4465 3.55248 39.6269 5.14487C40.8331 6.60645 42.0013 8.60417 43.1314 11.138L63.9495 58.4722L108.178 17.2651C108.858 17.2636 109.525 17.3274 110.179 17.4567C110.858 17.4551 111.591 17.5319 112.376 17.687C115.122 18.2298 117.021 19.2845 118.07 20.8511C119.251 22.4434 119.647 24.2207 119.259 26.1827C118.975 27.6216 118.298 28.9828 117.229 30.2666C116.316 31.4454 115.195 32.6508 113.864 33.8828C106.923 40.1221 99.9158 46.3485 92.8436 52.5619C85.7715 58.7754 78.5556 65.0284 71.196 71.3209L99.8538 133.66C98.7603 135.754 97.352 137.379 95.6288 138.533C93.9056 139.688 91.8014 140.019 89.3161 139.528C87.2233 139.115 85.5608 138.242 84.3288 136.912C83.2276 135.607 82.1248 133.622 81.0204 130.957L59.1368 80.7621Z" fill="#FAFF01"/>
</svg>
