<svg width="101" height="124" viewBox="0 0 101 124" fill="none" xmlns="http://www.w3.org/2000/svg">
<path d="M100.6 6.99999C100.6 8.46666 99.6 11.3333 97.6 15.6C95.6 19.7333 92.8 24.9333 89.2 31.2C85.6 37.4667 81.2667 44.6 76.2 52.6C71.2667 60.6 65.8 69.0667 59.8 78V122.6C59.1333 122.867 58.0667 123.133 56.6 123.4C55.2667 123.8 53.8667 124 52.4 124C46.5333 124 43.6 121.533 43.6 116.6V78C39.8667 72.5333 36 66.7333 32 60.6C28.1333 54.4667 24.2667 48.2667 20.4 42C16.5333 35.7333 12.8667 29.6 9.4 23.6C5.93333 17.6 2.86667 11.9333 0.2 6.6C0.733333 5.13332 1.73333 3.73332 3.2 2.39999C4.66667 0.933327 6.6 0.199996 9 0.199996C11.5333 0.199996 13.4667 0.866662 14.8 2.19999C16.2667 3.53333 17.7333 5.53333 19.2 8.2C21.3333 11.9333 23.8 16.3333 26.6 21.4C29.5333 26.4667 32.4667 31.6 35.4 36.8C38.4667 42 41.4 47.0667 44.2 52C47 56.8 49.4 60.8 51.4 64H52.2C59.1333 52.4 65.2667 41.6 70.6 31.6C76.0667 21.6 81.4667 11.6 86.8 1.59999C87.6 1.06666 88.5333 0.73333 89.6 0.59999C90.8 0.333327 91.9333 0.199996 93 0.199996C98.0667 0.199996 100.6 2.46666 100.6 6.99999Z" fill="#FAFF01"/>
</svg>
